<svg width="156" height="706" viewBox="0 0 156 706" fill="none" xmlns="http://www.w3.org/2000/svg">
<path d="M155.292 163.391H130.542V206H88.0729V163.391H0.322922V133.156L90.4635 0.40625H130.542V129.641H155.292V163.391ZM88.0729 129.641V94.7656C88.0729 88.9531 88.3073 80.5156 88.776 69.4531C89.2448 58.3906 89.6198 51.9688 89.901 50.1875H88.776C85.3073 57.875 81.1354 65.375 76.2604 72.6875L38.5729 129.641H88.0729ZM155.292 663.391H130.542V706H88.0729V663.391H0.322922V633.156L90.4635 500.406H130.542V629.641H155.292V663.391ZM88.0729 629.641V594.766C88.0729 588.953 88.3073 580.516 88.776 569.453C89.2448 558.391 89.6198 551.969 89.901 550.188H88.776C85.3073 557.875 81.1354 565.375 76.2604 572.688L38.5729 629.641H88.0729Z" fill="#16A085"/>
<path d="M149.526 353.203C149.526 389.109 143.62 415.688 131.807 432.938C120.089 450.188 101.995 458.812 77.526 458.812C53.8073 458.812 35.901 449.906 23.8073 432.094C11.8073 414.281 5.8073 387.984 5.8073 353.203C5.8073 316.922 11.6667 290.203 23.3854 273.047C35.1042 255.797 53.151 247.172 77.526 247.172C101.245 247.172 119.151 256.172 131.245 274.172C143.432 292.172 149.526 318.516 149.526 353.203ZM48.9792 353.203C48.9792 378.422 51.1354 396.516 55.4479 407.484C59.8542 418.359 67.2135 423.797 77.526 423.797C87.651 423.797 94.9635 418.266 99.4635 407.203C103.964 396.141 106.214 378.141 106.214 353.203C106.214 327.984 103.917 309.891 99.3229 298.922C94.8229 287.859 87.5573 282.328 77.526 282.328C67.3073 282.328 59.9948 287.859 55.5885 298.922C51.1823 309.891 48.9792 327.984 48.9792 353.203Z" fill="white"/>
</svg>
